# xmcd
#
# Track frame offsets: 
#        150
#        13787
#        26867
#        38832
#        51916
#        67564
#        80407
#        92736
#        105780
#        117576
#        129858
#        140789
#        152909
#        167092
#        178015
#        189809
#        200799
#        213246
#        225161
#        235035
#
# Disc length: 3312 seconds
#
# Revision: 1
# Processed by: cddbd v1.5.2PL0 Copyright (c) Steve Scherf et al.
# Submitted via: ExactAudioCopyFreeDBPlugin 1.0
#
DISCID=010cee14
DTITLE=T-Bone Walker, Jimmy Witherspoon - ABC Of The Blues - Vol. 46 W
DTITLE=alker, Witherspoon
DYEAR=2010
DGENRE=Blues
TTITLE0=T-Bone Walker - They Call It Stormy Monday
TTITLE1=T-Bone Walker - It's A Low Down Dirty Deal
TTITLE2=T-Bone Walker - Bobby Sox Blues
TTITLE3=T-Bone Walker - Mean Old World
TTITLE4=T-Bone Walker - Evening
TTITLE5=T-Bone Walker - Long Skirt Baby Blues
TTITLE6=T-Bone Walker - Midnight Blues
TTITLE7=T-Bone Walker - I'm Still In Love With You
TTITLE8=T-Bone Walker - Low Down Dirty Shame (Married Woman Blues)
TTITLE9=T-Bone Walker - T-Bone Jumps Again
TTITLE10=Jimmy Witherspoon - I'm Just A Lady's Man
TTITLE11=Jimmy Witherspoon - Love My Baby
TTITLE12=Jimmy Witherspoon - Love And Friendship
TTITLE13=Jimmy Witherspoon - Geneva Blues aka Evil Woman
TTITLE14=Jimmy Witherspoon - I'm Just Wandering (Part 1)
TTITLE15=Jimmy Witherspoon - I'm Just Wandering (Part 2)
TTITLE16=Jimmy Witherspoon - Good Jumping aka Jump Children
TTITLE17=Jimmy Witherspoon - Thelma Lee Blues
TTITLE18=Jimmy Witherspoon - The Doctor Knows His Business aka Doctor 
TTITLE18=Blues
TTITLE19=Jimmy Witherspoon - Slow Your Speed
EXTD=
EXTT0=
EXTT1=
EXTT2=
EXTT3=
EXTT4=
EXTT5=
EXTT6=
EXTT7=
EXTT8=
EXTT9=
EXTT10=
EXTT11=
EXTT12=
EXTT13=
EXTT14=
EXTT15=
EXTT16=
EXTT17=
EXTT18=
EXTT19=
PLAYORDER=
